<?xml version="1.0" standalone="no"?>
<!DOCTYPE svg PUBLIC "-//W3C//DTD SVG 20010904//EN"
 "http://www.w3.org/TR/2001/REC-SVG-20010904/DTD/svg10.dtd">
<svg version="1.0" xmlns="http://www.w3.org/2000/svg"
 width="207.000000pt" height="200.000000pt" viewBox="0 0 207.000000 200.000000"
 preserveAspectRatio="xMidYMid meet">

<g transform="translate(0.000000,200.000000) scale(0.100000,-0.100000)"
fill="#000000" stroke="none">
<path d="M423 1013 c-166 -357 -305 -656 -309 -666 -6 -16 28 -17 666 -15
l673 3 296 635 c163 349 302 647 308 663 l13 27 -673 0 -672 0 -302 -647z
m1464 525 c-13 -31 -499 -1073 -502 -1077 -2 -1 -24 38 -49 88 -33 65 -51 91
-65 91 -15 0 -11 -13 30 -93 27 -50 49 -95 49 -99 0 -5 -239 -8 -531 -8 -502
0 -531 1 -525 17 16 43 492 1062 496 1063 3 0 23 -34 45 -75 27 -52 46 -75 58
-75 16 0 12 12 -27 86 -25 47 -46 88 -46 90 0 2 241 4 536 4 425 0 535 -3 531
-12z"/>
<path d="M1219 1318 c-155 -103 -134 -594 28 -634 44 -11 104 3 133 31 122
117 113 528 -12 605 -45 27 -106 26 -149 -2z m100 -87 c26 -26 36 -93 35 -241
-1 -167 -23 -231 -74 -215 -41 13 -54 67 -54 225 -1 147 9 204 41 235 19 20
29 19 52 -4z"/>
<path d="M801 1293 l-63 -36 6 -41 c4 -22 9 -42 11 -44 2 -2 23 8 48 22 24 14
47 26 50 26 4 0 8 -120 9 -267 l3 -268 53 -3 52 -3 0 325 0 326 -52 -1 c-41 0
-67 -8 -117 -36z"/>
<path d="M1010 1142 c0 -18 14 -60 32 -95 29 -55 33 -59 36 -35 2 16 -11 53
-32 95 -33 63 -35 66 -36 35z"/>
</g>
</svg>
