<?xml version="1.0" standalone="no"?>
<!DOCTYPE svg PUBLIC "-//W3C//DTD SVG 20010904//EN"
 "http://www.w3.org/TR/2001/REC-SVG-20010904/DTD/svg10.dtd">
<svg version="1.0" xmlns="http://www.w3.org/2000/svg"
 width="188.000000pt" height="200.000000pt" viewBox="0 0 188.000000 200.000000"
 preserveAspectRatio="xMidYMid meet">

<g transform="translate(0.000000,200.000000) scale(0.100000,-0.100000)"
fill="#000000" stroke="none">
<path d="M725 1647 l-480 -122 -32 -450 c-36 -515 -38 -571 -20 -578 6 -2 196
-79 422 -170 226 -91 433 -175 461 -186 l52 -20 327 390 c229 274 325 395 320
406 -3 9 -123 205 -267 435 -210 335 -266 418 -283 417 -11 0 -236 -56 -500
-122z m692 -367 c122 -195 222 -358 223 -362 0 -5 -490 -597 -540 -651 -10
-11 -790 302 -797 320 -3 8 7 202 23 431 l29 417 400 102 c220 56 409 101 420
100 14 -2 80 -99 242 -357z"/>
<path d="M995 1284 c-54 -20 -56 -23 -43 -72 10 -40 12 -42 32 -29 52 34 123
25 146 -18 19 -35 8 -124 -23 -187 -15 -31 -63 -104 -108 -164 -65 -88 -79
-114 -77 -139 l3 -30 168 -3 167 -2 0 50 0 50 -100 0 -100 0 62 83 c110 148
147 260 118 361 -27 97 -134 141 -245 100z"/>
<path d="M617 1252 l-69 -37 7 -40 c3 -21 8 -41 9 -43 2 -2 27 8 55 22 l51 26
2 -267 3 -268 53 -3 52 -3 0 325 0 326 -47 0 c-36 0 -65 -10 -116 -38z"/>
</g>
</svg>
