<?xml version="1.0" standalone="no"?>
<!DOCTYPE svg PUBLIC "-//W3C//DTD SVG 20010904//EN"
 "http://www.w3.org/TR/2001/REC-SVG-20010904/DTD/svg10.dtd">
<svg version="1.0" xmlns="http://www.w3.org/2000/svg"
 width="176.000000pt" height="200.000000pt" viewBox="0 0 176.000000 200.000000"
 preserveAspectRatio="xMidYMid meet">

<g transform="translate(0.000000,200.000000) scale(0.100000,-0.100000)"
fill="#000000" stroke="none">
<path d="M775 1255 c-346 -278 -631 -508 -632 -512 -2 -7 1508 -602 1515 -598
4 3 -243 1615 -248 1615 -3 -1 -288 -228 -635 -505z m645 -301 c49 -324 91
-599 93 -611 4 -21 2 -21 -27 -9 -17 7 -278 109 -579 226 -541 211 -548 214
-525 232 13 9 230 183 483 386 253 203 461 368 463 367 2 -2 43 -268 92 -591z"/>
<path d="M997 1093 c-79 -155 -107 -218 -107 -245 l0 -38 110 0 110 0 0 -80 0
-80 50 0 50 0 0 80 0 80 30 0 c29 0 30 2 30 45 0 43 -1 45 -30 45 l-30 0 -2
198 -3 197 -51 3 -51 3 -106 -208z m109 -190 c-2 -2 -29 -3 -60 -1 l-55 3 57
119 57 120 3 -119 c1 -65 1 -120 -2 -122z"/>
</g>
</svg>
