<?xml version="1.0" standalone="no"?>
<!DOCTYPE svg PUBLIC "-//W3C//DTD SVG 20010904//EN"
 "http://www.w3.org/TR/2001/REC-SVG-20010904/DTD/svg10.dtd">
<svg version="1.0" xmlns="http://www.w3.org/2000/svg"
 width="162.000000pt" height="200.000000pt" viewBox="0 0 162.000000 200.000000"
 preserveAspectRatio="xMidYMid meet">

<g transform="translate(0.000000,200.000000) scale(0.100000,-0.100000)"
fill="#000000" stroke="none">
<path d="M220 990 l0 -670 670 0 670 0 0 670 0 670 -670 0 -670 0 0 -670z
m1230 0 l0 -550 -560 0 -560 0 0 550 0 550 560 0 560 0 0 -550z"/>
<path d="M943 1326 c-122 -39 -198 -143 -224 -305 -26 -174 30 -311 141 -341
115 -31 210 71 210 224 0 152 -111 241 -213 172 l-35 -24 8 29 c26 90 86 151
160 164 40 7 40 7 40 51 0 39 -2 44 -22 43 -13 0 -42 -6 -65 -13z m-28 -312
c43 -17 61 -147 31 -219 -12 -29 -20 -35 -44 -35 -37 0 -58 24 -71 80 -18 76
-14 115 15 149 26 31 39 36 69 25z"/>
</g>
</svg>
