<?xml version="1.0" standalone="no"?>
<!DOCTYPE svg PUBLIC "-//W3C//DTD SVG 20010904//EN"
 "http://www.w3.org/TR/2001/REC-SVG-20010904/DTD/svg10.dtd">
<svg version="1.0" xmlns="http://www.w3.org/2000/svg"
 width="179.000000pt" height="200.000000pt" viewBox="0 0 179.000000 200.000000"
 preserveAspectRatio="xMidYMid meet">

<g transform="translate(0.000000,200.000000) scale(0.100000,-0.100000)"
fill="#000000" stroke="none">
<path d="M446 1633 c-13 -62 -226 -1279 -226 -1290 0 -11 133 -13 667 -11
l667 3 111 630 c61 347 114 645 118 663 l7 32 -669 0 -669 0 -6 -27z m1201
-110 c-3 -16 -44 -251 -92 -523 -47 -272 -89 -504 -94 -514 -6 -16 -28 6 -132
132 -106 129 -126 149 -136 136 -10 -13 8 -39 108 -159 65 -79 119 -146 119
-149 0 -3 -241 -6 -536 -6 -505 0 -535 1 -530 18 3 9 46 251 96 537 50 285 92
521 94 522 1 2 58 -67 127 -152 68 -84 127 -154 132 -154 4 -1 7 9 7 20 0 13
-49 82 -115 164 -63 78 -115 145 -115 148 0 4 241 7 536 7 l537 0 -6 -27z"/>
<path d="M935 1326 c-105 -47 -128 -195 -42 -275 l25 -23 -33 -29 c-45 -40
-69 -104 -63 -170 9 -92 65 -142 166 -147 55 -2 74 1 106 20 104 61 114 229
18 310 l-31 26 26 23 c76 71 68 200 -16 256 -39 26 -108 30 -156 9z m109 -88
c30 -43 14 -131 -28 -160 -17 -11 -65 42 -72 80 -10 52 17 102 55 102 20 0 35
-8 45 -22z m13 -312 c19 -37 21 -102 4 -134 -16 -30 -54 -44 -85 -32 -67 25
-65 166 3 216 20 15 56 -8 78 -50z"/>
</g>
</svg>
