<svg version="1.1"
	xmlns="http://www.w3.org/2000/svg"
	xmlns:xlink="http://www.w3.org/1999/xlink" x="0px" y="0px" viewBox="0 0 512 512" width="512" height="512" xml:space="preserve">
	<style type="text/css">
		.st0{
			fill: #00FF79;
		}
	</style>
	<polygon class="st0" points="0,1.4 0,16.9 150.3,157.7 95.5,1.4 "/>
	<polygon class="st0" points="131.6,1.4 204.6,133.5 201.5,1.4 "/>
	<polygon class="st0" points="238.9,1.4 263.2,127.3 301.2,1.4 "/>
	<polygon class="st0" points="338.6,1.4 321.2,139.7 417.8,1.4 "/>
	<polygon class="st0" points="452.1,1.4 373,169.5 512,64 512,1.4 "/>
	<polygon class="st0" points="0,58.5 0,147.7 106,197.4 "/>
	<polygon class="st0" points="512,107.5 412.2,212.9 512,178.2 "/>
	<g>
		<path class="st0" d="M384.5,237.5c-2-10.1-6.4-21.1-13.2-31.6c-11.7-18.1-26.9-29-38.7-29.1c-3.8,0-7.4,1.2-10.3,3.6c-2.6,2.3-4.4,5.5-5.4,9.3
		c1.4,1.7,2.7,3.4,4,5.1c12.4,17.6,20.9,39.9,24,64.8c9.2,8.3,18.8,12.5,26.4,11.5l58.3,38.1l-111.7,61.4
		c-4.4,5.6-9.2,10.6-14.3,15.1c-6-4.6-11.7-8.5-17.5-11.5c6.7-4.8,13-11.2,18.6-19c13.1-18.6,21.7-45,21.7-74.5
		c0-29.4-8.5-55.9-21.7-74.5s-30.2-29-48.5-29s-35.3,10.4-48.5,29c-13.1,18.6-21.7,45-21.7,74.5s8.5,55.9,21.7,74.5
		c4.8,6.9,10.3,12.6,16,17.1c-5.9,2.8-11.9,6.4-17.8,10.8c-4-3.7-7.8-7.8-11.2-12.1L82.1,309.4l58.1-38c8,0.5,17.9-4.4,27.2-13.4
		c3.3-24.1,11.6-45.8,23.7-63c0.9-1.2,1.7-2.3,2.6-3.5c-1-4.6-3-8.4-5.9-10.9c-2.9-2.5-6.3-3.7-10.3-3.6l0,0
		c-11.6,0.1-26.9,11-38.5,29.1c-6.9,10.7-11.4,22.1-13.3,32.3C73.4,262.4,4.1,306.2,4.1,306.2L162.5,440l16,72h154.2l12.1-68.7
		l0.1,0.1l162.6-137.2C507.5,306,437,261.4,384.5,237.5z M309.9,248.1l-6.4,18.8c-9.8-3.3-19.9-5.6-29.8-7c0.2-2.5,0.3-5.1,0.3-7.9
		c0-4.2-0.3-8.4-1-12.2l0,0C285.4,241.2,297.8,243.9,309.9,248.1z M200.5,248.3c13.3-5.3,27.8-8.4,42.4-9.3l0,0l0,0l0,0
		c-0.7,4-1.1,8.5-1.1,13.1c0,2.3,0.1,4.7,0.3,6.9c-12.1,1-23.6,3.6-34.3,7.8L200.5,248.3z M255.5,361.5c-21.7,0-39.2-17.4-39.2-39
		c0-21.6,17.5-39,39.2-39l0,0c21.7,0,39.2,17.4,39.2,39C294.7,344,277.1,361.5,255.5,361.5z"/>
	</g>
</svg>
