<svg version="1.1"
	xmlns="http://www.w3.org/2000/svg"
	xmlns:xlink="http://www.w3.org/1999/xlink" x="0px" y="0px" viewBox="0 0 512 512" width="512" height="512" xml:space="preserve">
	<style type="text/css">
		.st0{
			fill: #FFCD00;
		}
	</style>
	<path class="st0" d="M387.4,3.1L51.5,57.7l4,24.7l335.9-54.6L387.4,3.1L387.4,3.1z M373,51.1l-19.8,3.2l17.6,108.1c-7.5,5.1-11.9,14.2-10.3,23.8
	c0.5,3.1,1.6,6,3.1,8.6c5.9-4.5,13.1-7.8,21-9.1h0.1c2.5-0.4,4.8-0.5,7.2-0.6c0.8,0,1.6,0,2.4,0c4.6,0.2,9.1,1.1,13.4,2.5
	c0.6-2.9,0.8-6,0.3-9.2c-1.5-9.5-8.5-16.8-17.2-19.3L373,51.1L373,51.1z M326.8,58.7L128.3,90.9c9.8,45.4,27.7,84.6,49.2,111.8
	c24.4,30.7,51.9,45.6,77.5,41.5s47.1-26.9,60.3-63.9C327.2,147.8,331.9,104.9,326.8,58.7L326.8,58.7z M101.2,95.3l-19.8,3.2
	L98.9,207c-7.3,5.2-11.5,14.1-10,23.6c0.5,3,1.5,5.8,3,8.4c6-4.6,13.3-7.9,21.2-9.2c2.5-0.4,4.8-0.5,7.2-0.6c0.8,0,1.6,0,2.4,0
	c4.6,0.2,9.2,1.1,13.4,2.5c0.6-2.8,0.6-5.8,0.2-8.8c-1.6-9.7-8.7-17-17.6-19.4L101.2,95.3z M392,205.3c-1.4,0-2.8,0.1-4.2,0.3
	c-15.1,2.5-25.2,16.5-22.7,31.6s16.5,25.2,31.6,22.7c15.1-2.5,25.2-16.5,22.7-31.6c-2.2-13.3-13.1-22.6-26-23.1
	C392.9,205.3,392.5,205.3,392,205.3L392,205.3z M120.6,249.4c-1.4,0-2.8,0.1-4.2,0.3c-15.1,2.5-25.2,16.5-22.7,31.6
	c2.5,15.1,16.5,25.2,31.6,22.7c15.1-2.5,25.2-16.5,22.7-31.6c-2.2-13.3-13.1-22.6-26-23.1C121.5,249.4,121,249.4,120.6,249.4
	L120.6,249.4z M265.7,264.2c-2.4,0.1-4.8,0.3-7.2,0.6c-25.4,4.1-47.1,27-60.3,63.9c-12.1,33.3-16.6,77-11.1,124.2l198.6-32.2
	c-9.7-46.4-27.8-86.5-49.8-114.3c-21.2-26.9-45.1-41.7-67.8-42.1C267.3,264.2,266.5,264.2,265.7,264.2L265.7,264.2z M421,270.8
	c-6,4.5-13.1,7.8-21.1,9.1c-8,1.3-15.8,0.5-22.9-1.9c-0.6,2.9-0.8,6-0.3,9.2c1.5,9.6,8.6,17,17.5,19.4l17.9,110.1l19.8-3.2
	l-17.9-110.2c7.4-5.1,11.7-14.2,10.1-23.7C423.5,276.2,422.5,273.3,421,270.8L421,270.8z M149.3,315c-5.9,4.5-13,7.6-20.9,8.9
	c-8,1.3-15.7,0.5-22.8-1.9c-0.8,3-0.9,6.1-0.3,9.5c1.5,9.5,8.4,16.7,17,19.2l17.8,110l19.8-3.2l-17.8-109.8
	c7.6-5.1,12.1-14.2,10.6-23.9C152,320.6,150.9,317.6,149.3,315L149.3,315z M456.5,429.6l-335.9,54.6l4,24.7l335.9-54.6L456.5,429.6
	L456.5,429.6z"/>
</svg>
