<svg version="1.1"
	xmlns="http://www.w3.org/2000/svg"
	xmlns:xlink="http://www.w3.org/1999/xlink" x="0px" y="0px" viewBox="0 0 512 512" width="512" height="512" xml:space="preserve">
	<style type="text/css">
	.st0{
		fill:#FF0000;
	}
	</style>
	<polygon class="st0" points="238.9,355.7 271.8,355.7 255.4,329.5 "/>
	<ellipse class="st0" cx="292.1" cy="320.6" rx="19.8" ry="19.5"/>
	<ellipse class="st0" cx="218.6" cy="320.6" rx="19.8" ry="19.5"/>
	<path class="st0" d="M420.9,232.3C419.7,230.1,256,3.3,256,3.3S92.3,230.1,91.1,232.2c-16.9,30.5-28.7,60.8-28.7,95.7
	c0,50.1,22.3,98.6,60.9,132.9c38.1,33.9,86.1,48.9,133.3,48.2c83.3-1.5,164.6-52.2,187.1-136.2c3.9-14.6,5.8-29.7,5.8-44.8
	C449.6,293,437.8,262.9,420.9,232.3z M336.6,206.4c3.1-7.4,8.4-10.6,13.4-10.6c10.3-0.1,18.9,12.6,4.1,27.8
	c26.1-18.7,44,11,19.5,19.2c-16.1,5.4-34.7,16.4-54.1,30.9c-4.2-6.2-9.3-11.7-15.1-16.4C319,238.5,330.4,221,336.6,206.4z
	 M153.2,222.9c-11.8-14.1-1.2-26.9,9-27.1c4.3-0.1,8.5,2.1,11,7.4c7.4,15.5,19.4,34.1,34.1,53.5c-6.4,5.1-12,11.1-16.4,17.9
	c-20.1-15.6-39.1-28.1-54.6-35C115.3,230.2,133,204.7,153.2,222.9z M173.1,440.7c-8.3,17.8-36.7,0.3-20-19.8
	c-19.9,18.3-37.7-7.3-16.9-16.7c16.9-7.7,38-21.8,60.1-39.4c4.9,5.7,10.5,10.6,16.7,14.6C195.4,401.7,181.4,423.1,173.1,440.7z
	 M289,403.7h-10.3v-25.8c-2.9,1.1-5.8,1.9-8.9,2.6v23.2h-10.3v-21.8c-1.4,0.1-2.9,0.1-4.3,0.1c-1.4,0-2.9,0-4.3-0.1v21.6h-10.3
	v-23.2c-3-0.6-6.1-1.5-8.9-2.6v25.8h-10.3v-30.7c-19.8-11.4-33-32.6-33-56.9c0-36.5,29.8-66,66.8-66c37,0,66.8,29.5,66.8,66
	c0,24.4-13.2,45.5-33.2,57.1L289,403.7L289,403.7z M354.2,420.3c22.1,22.6-8,39.8-17.5,17.3c-7-16.6-20.8-36.8-38.3-58.3
	c5.7-3.8,10.8-8.3,15.4-13.5c21.4,16.6,42.1,29.3,59.8,35.2C398.1,409.3,380.2,439,354.2,420.3z"/>
</svg>
