<svg version="1.1"
	xmlns="http://www.w3.org/2000/svg"
	xmlns:xlink="http://www.w3.org/1999/xlink" x="0px" y="0px" viewBox="0 0 512 512" width="512" height="512" xml:space="preserve">
	<style type="text/css">
	.st0{
		fill:#FF0000;
	}
	</style>
	<path class="st0" d="M511.9,178.1l-135,29.6l-9.1,1.9l1.4,9.2l16.5,114.3L238.4,185.8c-8-8-17.8-11.8-27.2-12.1c-1.2,0-2.2,0-3.4,0l14.5-52
	l1.5-5.5l-4-4L118,10.3l-4-4l-5.5,1.5L34.3,27.6l-5.5,1.5l-1.5,5.5L7.5,108.6L6,114.2l4,4L111.8,220l4,4l5.5-1.5l53.4-14.3
	c0.5,9.4,5.1,19,13.6,27.5l159,159l-92.8-8.8l-23-2.2l14.3,18.2l27.5,35.2l-37.5,15.9l-7.4,3.1l1.4,7.8l8.5,47.7h20.2l-7.8-43.4
	l35.2-14.9l45.5,58.3h25.3L305,445.1l68.1-28.9c13.4,5.5,28.8,2.1,38.6-6.7c6.4-5.8,11-14.1,11.4-23.4c0.3-8.4-2.9-17.4-9.5-25.1
	l33.5-90.4l65,5.6v-20l-70.9-6.1l-7.6-0.6l-2.7,7.1l-26,70.2l-14.7-101.8l121.7-26.6L511.9,178.1L511.9,178.1z M292.3,429
	l-16.5-21.1l0,0l0,0l0,0L330,413L292.3,429z M185.3,183c-0.9,0.9-1.7,1.7-2.6,2.6l-60.9,16.3l-93.5-93.5l16.8-63l63-16.8l0,0
	l93.5,93.5L185.3,183z M202.5,221.7c-6.3-6.2-7.9-11.3-7.9-15c0-1.4,0.2-2.7,0.5-3.8l0.2-0.1v-0.3c0.7-1.9,1.9-3.6,3.6-5.1
	c2.9-2.5,6.8-4.2,11.3-4l0,0c4.5,0.1,9.4,1.9,14.1,6.7l2.3,2.3L204.9,224L202.5,221.7z M219,238.1l21.7-21.7l17.3,17.3l-21.8,21.7
	L219,238.1z M250.3,269.4l21.8-21.7l0,0l0,0l0,0l17.3,17.3l-21.8,21.7L250.3,269.4z M281.6,300.7l21.8-21.7l17.6,17.6l-21.7,21.7
	L281.6,300.7z M313.3,332.5l21.7-21.7l17.3,17.3l-21.7,21.7L313.3,332.5z M359.7,378.9l-15-15l21.8-21.8l0,0l15,15L359.7,378.9z
	 M395.5,371.1L395.5,371.1l1.4,1.4c5.2,5.2,6.3,9.4,6.2,12.8c-0.1,3.5-1.8,6.8-4.8,9.5c-6,5.4-15.1,7.5-23.1-0.5l-1.4-1.4
	L395.5,371.1z"/>
</svg>
