<svg version="1.1"
	xmlns="http://www.w3.org/2000/svg"
	xmlns:xlink="http://www.w3.org/1999/xlink" x="0px" y="0px" viewBox="0 0 512 512" width="512" height="512" xml:space="preserve">
	<style type="text/css">
	.st0{
		fill:#CD59F7;
	}
	.st1{
		fill:none;
	}
	</style>
	<g>
		<path class="st0" d="M260.9,22.4c5.4,0.5,10.3,2.5,15.1,5.1l9.5-16.9C278.7,6.6,271,4.2,263.9,3C263,9.4,261.9,16,260.9,22.4z"/>
		<path class="st0" d="M251.4,3.3c-7.9,0.5-14.6,2.6-21.9,6.2l8.6,17.3c5.3-2,10-3.8,15.2-4.2L251.4,3.3z"/>
		<path class="st0" d="M211.4,22.7c-5.2,5.4-10.2,12.2-13.2,17.7l16.9,9.5c3.2-4.9,6.1-9.5,10-13.3C220.7,31.9,215.8,27.4,211.4,22.7L211.4,22.7z
		"/>
		<path class="st0" d="M302.9,24.7l-14.5,12.9c3.9,4.2,6.9,8.9,9.7,13.9l17.3-8.8C311.8,36.1,307.3,29.7,302.9,24.7z"/>
		<path class="st0" d="M189.9,60.1c-2.2,7-3.4,14.7-3.9,21l19.3,1.9c0.6-6.4,1.5-11.1,3.1-17.1L189.9,60.1z"/>
		<path class="st0" d="M323.1,62.4c-6.2,2-12.5,3.5-18.8,5.1c1.1,5.8,2.3,12.3,2.8,17.2l19.4-1C325.7,76.4,324.7,68.8,323.1,62.4L323.1,62.4z"/>
		<path class="st0" d="M205.5,100.4l-19.2,2c0.4,7.3,2.7,14.9,4.5,20.9l18.5-5.9C207.5,111.3,206.3,105.9,205.5,100.4z"/>
		<path class="st0" d="M306.5,102.2c-0.8,5.9-2.5,11.6-4.2,16.8l18.2,6.9c2.4-7,4.3-14.5,5.2-20.8L306.5,102.2z"/>
		<path class="st0" d="M216.4,132.7c0,0-11.9,5.6-16.7,7c0,0,5,10,7.2,17.8c7.9-2.3,16.1-3.3,24.2-4.7C226.2,145.6,220.2,138.8,216.4,132.7
		L216.4,132.7z"/>
		<path class="st0" d="M294.6,134.5c-4.4,6.5-9.6,12.5-14.4,18.6c8.1,2.2,16.6,2.8,24.5,5.7c0,0,4.6-13.4,6.3-18.4
		C305.1,138.4,294.6,134.5,294.6,134.5L294.6,134.5z"/>
		<path class="st0" d="M181.5,147.7c-6.9,4.6-11.5,8.4-16.7,13.9l14,13.4c4.8-4.7,8.1-7.8,13.1-10.9L181.5,147.7z"/>
		<path class="st0" d="M330.7,150.6l-11.2,15.8c4.8,3.2,9,7.2,12.8,11.5l14.4-13C341.1,159.1,336.9,154.7,330.7,150.6z"/>
		<path class="st0" d="M151.9,179c-3.6,5.9-6.5,12.3-9,18.7l18.1,7.2c2.1-5.6,4.7-11.1,7.8-16.2L151.9,179z"/>
		<path class="st0" d="M359.1,182.4l-16.8,9.6c2.9,5.3,5.6,10.8,7.9,16.4l18-7.4C365.7,194.5,362.5,188.4,359.1,182.4L359.1,182.4z"/>
		<path class="st0" d="M136.7,217.5c-1.7,6.4-3.1,13.2-3.9,19.9l19.1,2.9c0.8-6.1,2.3-12.2,3.6-18.2L136.7,217.5z"/>
		<path class="st0" d="M374.6,220.6l-18.8,5c1.9,5.9,2.7,11.9,3.9,18.1l19.1-3.2C377.7,233.8,376.5,227.1,374.6,220.6L374.6,220.6z"/>
		<path class="st0" d="M130.4,257.5c-0.5,7.1-0.6,13.1-0.6,20h19.4c0.1-6.5,0.2-13.4,0.6-18.7L130.4,257.5z"/>
		<path class="st0" d="M381.4,260.5l-19.4,1.6c0.5,6,0.8,12.5,0.8,18.7l19.4-0.1C382.1,273.3,381.8,266.9,381.4,260.5z"/>
		<path class="st0" d="M149.8,296.4l-19.4,1c0.4,6.6,1,13.2,1.8,19.8l19.3-2.1C150.6,309,150.2,302.6,149.8,296.4z"/>
		<path class="st0" d="M362.1,299.4c-0.2,6.2-1,12.5-1.8,18.7l19.2,2.5c1-6.5,1.5-13.2,2-19.8L362.1,299.4z"/>
		<path class="st0" d="M134.5,332.4c0.5,6.5,2.1,13.4,3,19h21.1V332C150.6,331.8,142.6,332.1,134.5,332.4L134.5,332.4z"/>
		<path class="st0" d="M178,332c-0.1,6.6,0,12.8,0,19.4l19.9-0.5c-0.5-6.3-0.9-12.6-1.2-18.9H178z"/>
		<path class="st0" d="M313,332c-0.5,6.5-1,13.2-1.6,19.7l19.4,1.5l-0.2-21.2H313z"/>
		<path class="st0" d="M350.1,332v19.4h24.1c1.4-6.6,2.4-12,3.5-18.7C368.6,331.8,359.3,332,350.1,332z"/>
		<polygon class="st0" points="199.2,370.3 179.9,371.6 181.1,391 200.4,389.7 	"/>
		<polygon class="st0" points="310,371.1 308.7,390.4 328,391.8 329.4,372.5 	"/>
		<rect class="st0" x="247.5" y="383.4" width="19.3" height="19.4"/>
		<polygon class="st0" points="201.8,409.1 182.4,410.3 183.7,429.8 203,428.4 	"/>

		<rect class="st0" x="306.5" y="410.4" transform="matrix(7.505461e-02 -0.9972 0.9972 7.505461e-02 -126.4945 703.9191)" width="19.4" height="19.4"/>
		<rect class="st0" x="247.5" y="422.3" width="19.3" height="19.4"/>
		<polygon class="st0" points="204.3,447.8 185,449.1 186.2,468.5 205.6,467.1 	"/>

		<rect class="st0" x="303.5" y="449.2" transform="matrix(7.465770e-02 -0.9972 0.9972 7.465770e-02 -167.773 736.9791)" width="19.5" height="19.4"/>
		<rect class="st0" x="247.5" y="461.1" width="19.3" height="19.4"/>
		<path class="st0" d="M206.9,486.6l-19.4,1.2c0.5,7.1,0.9,14.1,1.5,21.2h16.3L206.9,486.6z"/>
		<path class="st0" d="M301.4,487.2l0.8,21.8h17c0.4-6.8,1-13.6,1.6-20.4L301.4,487.2z"/>
		<rect class="st0" x="224.6" y="489.6" width="19.3" height="19.4"/>
		<rect class="st0" x="263.4" y="489.6" width="19.4" height="19.4"/>
	</g>
</svg>
