<svg version="1.1"
	xmlns="http://www.w3.org/2000/svg"
	xmlns:xlink="http://www.w3.org/1999/xlink" x="0px" y="0px" viewBox="0 0 512 512" width="512" height="512" xml:space="preserve">
	<style type="text/css">
	.st0{
		fill:#D59754;
	}
	.st1{
		fill:none;
	}
	</style>
	<path class="st0" d="M327.6,168.5L327.6,168.5c0-1.2,0.1-2.4,0.4-3.5L7.8,485.1l20.4,20.4l320.2-320.2c-1.1,0.2-2.3,0.4-3.6,0.4
	C335.2,185.7,327.6,178.1,327.6,168.5z"/>
	<path class="st0" d="M353,143c-8.4,0-15.3,5.8-16.9,13.7c-0.2,1.1-0.4,2.3-0.4,3.5l0,0c0,9.6,7.6,17.2,17.2,17.3c1.2,0,2.4-0.1,3.6-0.4
	c7.9-1.6,13.7-8.5,13.7-16.9C370.3,150.7,362.6,143.1,353,143z"/>
	<path class="st0" d="M346,63.4c7.3,10.2,11.8,20.3,13.8,30.5c25.4-18.8,45.9-32,61.7-39.9c8.7-4.4,15.9-7.2,22.2-8.3c6.3-1.1,12.5-0.6,16.6,3.7
	c4.2,4.3,4.6,10.4,3.5,16.8c-1.1,6.4-3.8,13.7-8,22.6c-7.8,16.3-20.8,37.5-39.2,63.7c10.5,1.7,20.7,5.7,30.5,12.3
	c28-41.1,53.9-104.9,57.2-158.2C449.5,4.2,388,33.6,346,63.4L346,63.4z"/>
	<path class="st0" d="M356.5,131.3c12.6,1.5,22.8,11.2,25.2,23.6c7.1-2,14-3.1,20.8-3.2c20.4-28.7,34.6-51.5,42.4-67.9c3.9-8.3,6.2-14.9,7-19.5
	c0.8-4.5-0.1-6.1-0.3-6.4c-0.2-0.3-1.6-1.1-5.9-0.3c-4.3,0.8-10.8,3.1-18.9,7.2c-15.8,7.9-38,22.4-65.9,43.3
	C360.7,115.6,359.2,123.4,356.5,131.3L356.5,131.3z"/>
</svg>
