<svg version="1.1"
	xmlns="http://www.w3.org/2000/svg"
	xmlns:xlink="http://www.w3.org/1999/xlink" x="0px" y="0px" viewBox="0 0 512 512" width="512" height="512" xml:space="preserve">
	<style type="text/css">
		.st0{
			fill: #00FF79;
		}
	</style>
	<path class="st0" d="M467.3,95.8c-21.2-0.1-46.1,10.7-66.3,30.9c-6.3,6.3-11.7,13.1-16.1,20c-34.6-20.9-85.7-19.9-134.2-4.6
	c-10.8,2.9-21.6,6.6-31.9,10.9c-51.8,21.6-93,59-102.2,106.2c-7.8,35.7,6.4,74.9,56.2,112.3H31.6L0.2,428h304.6L200,305.7
	c28.8-31.7,79.9-51.8,114.9-53.4c16.3,53.4,42.9,134.4,85,175.7H472c-51-55.1-90.7-129.2-97.1-213c1.9,3.8,4.4,7.4,7.5,10.4
	c22.1,22.1,66.3,13.7,98.6-18.6c32.4-32.3,40.8-76.5,18.6-98.6C491.4,99.9,479.9,95.9,467.3,95.8L467.3,95.8z"/>
</svg>
