<svg version="1.1"
	xmlns="http://www.w3.org/2000/svg"
	xmlns:xlink="http://www.w3.org/1999/xlink" x="0px" y="0px" viewBox="0 0 512 512" width="512" height="512" xml:space="preserve">
	<style type="text/css">
		.st0{
			fill: #00FF79;
		}
	</style>
	<path class="st0" d="M191.8,284.2c5.2,5.4,6.3,15.7,6.9,22.4l20.6,11.4c1.8,5.3-3.3,15.8-8,16.5l-12.6-7c-0.9,6.9-1.7,13-4.6,18.5l9.2,5.1
	c6.3,3.5,13.8,2.2,18.8-1.2c3.1-2,5.5-4.6,7.6-7.5c7.1,1.5,11.5,2,19.5,2c7.9,0,15.7-0.6,22.9-2c2,2.9,4.5,5.4,7.6,7.5
	c5,3.4,12.6,4.8,18.8,1.2l9.2-5.1c-2.9-5.4-3.7-11.5-4.6-18.5l-12.6,7c-4.8-0.8-9.8-11.2-8-16.5l20.6-11.4
	c0.6-6.7,1.7-17.1,6.9-22.4c-2.6,0.1-5.3,0.9-8,2l-27.5,15.3c-6.3,3.5-9.6,10.9-9.8,17.2c-0.1,2,0,4.1,0.2,6
	c-4.9,0.7-10.3,1.1-15.7,1.1s-7.5-0.5-12.3-1.1c0.2-1.9,0.3-4,0.2-6c-0.3-6.3-3.6-13.7-9.8-17.2l-27.5-15.3
	C197,285.1,194.3,284.4,191.8,284.2L191.8,284.2z"/>
	<path class="st0" d="M119.8,284.8c-34.2,0.6-67.7,19.1-89.1,42c-2.5,2.7-3.4,6.7-2.2,10.2l0,0c2.3,6.6,10.1,8.5,14.8,3.5
	c29.8-31,69.2-40.2,106.6-29.9c-0.5-7.4-0.2-14.1,0.3-21.1C140.3,286.2,130,284.7,119.8,284.8L119.8,284.8z"/>
	<path class="st0" d="M381.8,284.8c-10.2-0.1-20.5,1.4-30.6,4.8c0.6,6.8,0.7,13.7,0.3,21.1c37.5-10.2,76.9-1.1,106.6,29.9
	c4.8,4.9,12.6,3.1,14.8-3.5l0,0c1.2-3.5,0.3-7.6-2.2-10.2C449.5,303.9,416,285.4,381.8,284.8L381.8,284.8z"/>
	<path class="st0" d="M167.5,285.1c-0.8,11.3-0.2,30.5,2.7,45.2l9.4,4.1c2.5-11.7,2.8-33.8,0.1-44.5C176.1,287.5,172.1,286.1,167.5,285.1
	L167.5,285.1z"/>
	<path class="st0" d="M334.1,285.1c-4.5,0.9-8.6,2.4-12.2,4.8c-2.7,10.6-2.5,32.9,0.1,44.5l9.4-4.1C334.3,315.6,334.8,296.4,334.1,285.1
	L334.1,285.1z"/>
	<path class="st0" d="M120.7,325c-26.4,0.3-52.2,13.5-68.8,32.5c1.7,5.4,3.3,10.9,5,16.4c-6.1,39.1-8,79.9-2.7,112.5c1,8.5,35.2,24.5,41.7,24.3
	c10.2-0.3,76.2-19.2,85.9-22.6c6.6-2.2,18.2-20,18.6-25.9c-4-25.1-14.4-48.7-27.4-71.3c8.3-0.6,18.2,5.3,26.1,11.4
	c4,8.3,7.6,16.8,10.5,25.5c5.1-6.1,13.7-14.6,10.2-22.6c-5.2-10.5-9.7-19.7-15.7-29.3c-2.4-3.8-40.2-32.1-59.3-32.1l-2.6-16
	c-6.2-1.7-12.6-2.5-18.8-2.6C122.4,325,121.6,325,120.7,325L120.7,325z"/>
	<path class="st0" d="M380.8,325c-0.9,0-1.7,0-2.6,0c-6.3,0.1-12.6,0.9-18.8,2.6l-2.6,16c-19.2,0.1-56.9,28.3-59.3,32.1
	c-6,9.6-10.5,18.8-15.7,29.3c-3.5,7.9,5.1,16.5,10.2,22.6c3.1-8.7,6.6-17.2,10.5-25.5c7.9-6.2,17.9-12,26.1-11.4
	c-13,22.6-23.4,46.2-27.4,71.3c0.5,5.9,26.5,27.3,33.1,29.4c9.7,3.3,78.8,15.8,89,16.2c6.5,0.2,23.1-12.9,24.1-21.4
	c5.3-32.6,3.3-73.4-2.7-112.5c1.7-5.4,3.3-10.9,5-16.4C433,338.4,407.2,325.3,380.8,325L380.8,325z"/>
	<path class="st0" d="M0,0v130.2l34,167.7c33.4-23.1,63.5-35.9,98-31.6L118.7,0H0z"/>
	<path class="st0" d="M388.4,0l-18.9,266.4c34.5-4.3,64.7,8.5,98,31.6l44.5-160V0C476.2,0,388.4,0,388.4,0z"/>
</svg>
