<svg version="1.1"
	xmlns="http://www.w3.org/2000/svg"
	xmlns:xlink="http://www.w3.org/1999/xlink" x="0px" y="0px" viewBox="0 0 512 512" width="512" height="512" xml:space="preserve">
	<style type="text/css">
	.st0{
		fill:#489DFF;
	}
	.st1{
		fill:none;
	}
	</style>
	<path class="st0" d="M273.5,341.5c20.7-64.6,32.1-139.1,31.7-205.1c-42.3-14.4-82.8-21.5-123.5-21.6h0c-0.4,0-0.8,0-1.2,0
	c-41.1,0-82,7.1-124.8,21.6C54.5,263,92.5,428.6,179.3,502.1C217.9,469.3,250.4,413.9,273.5,341.5z"/>
	<polygon class="st1" points="293,412.1 284.6,512 325.2,512 316.9,412.1 "/>
	<path class="st0" d="M293,412.1h23.9l8.3,99.9h61.1l-0.6-9.2c0-0.1,0-0.2,0-0.3c0-19-3.4-83.2-7.1-135.1c-3.8-71.3-7.6-144.1-7.6-144.1
	c0-4.8,12,8.7,12.8,10c4.1,6,7,12.7,9.2,19.5c5.7,17.9,7.7,37.2,10.9,55.7c2.4,13.9,4.8,27.8,7.3,41.7c0.3,6.5,5.9,11.7,12.9,11.7
	h4.2c0,0,2.4,0,2.4,0c6.3,0,11.7-4.3,12.7-10.2c15.5-92.5-31.8-206.6-92.6-222c0,0,0,0,0,0c-1.8-0.5-3.8-0.9-5.8-1.2c0,0,0,0,0,0
	c8.7-10.2,14.9-23.7,16.9-38.8c0.5-3.5,0.7-7.1,0.7-10.7c0-1.5-0.1-3-0.1-4.5c0-0.4,0-0.7-0.1-1.1c-0.2-2.9-0.5-5.8-1-8.6
	c-0.1-0.4-0.1-0.7-0.2-1.1c-0.5-2.8-1.2-5.6-2-8.2c-0.1-0.3-0.2-0.7-0.3-1c-0.8-2.7-1.8-5.2-2.9-7.7c-0.1-0.3-0.3-0.6-0.4-0.9
	c-0.6-1.2-1.1-2.5-1.7-3.6c-0.5-0.9-0.9-1.8-1.4-2.6c-1-1.7-2-3.4-3.1-5c-0.6-0.8-1.1-1.6-1.7-2.4c-0.6-0.8-1.2-1.5-1.8-2.3
	c-1.2-1.5-2.5-2.9-3.8-4.2c-0.7-0.7-1.3-1.3-2-2c-0.8-0.8-1.7-1.5-2.5-2.2c-0.3-0.2-0.6-0.4-0.9-0.7c-0.6-0.5-1.2-0.9-1.7-1.4
	c-0.3-0.3-0.7-0.5-1.1-0.7c-0.5-0.4-1.1-0.8-1.6-1.1c-0.4-0.2-0.8-0.5-1.1-0.7c-0.5-0.3-1.1-0.7-1.6-1c-0.2-0.1-0.4-0.2-0.5-0.3
	c-0.3-0.2-0.7-0.4-1-0.5c-0.3-0.1-0.5-0.3-0.8-0.4c-1.7-0.8-3.3-1.6-5.1-2.2c-0.3-0.1-0.5-0.2-0.8-0.3c-0.6-0.2-1.2-0.4-1.9-0.6
	c-0.2-0.1-0.3-0.1-0.5-0.2c-0.2-0.1-0.4-0.1-0.6-0.2c-0.3-0.1-0.6-0.2-0.8-0.2c-0.4-0.1-0.9-0.2-1.4-0.3c-0.3-0.1-0.5-0.1-0.8-0.2
	c-0.5-0.1-1-0.2-1.5-0.3c-0.2,0-0.5-0.1-0.7-0.1c-0.7-0.1-1.5-0.2-2.2-0.3c-0.5-0.1-1-0.1-1.4-0.1h0h-1.1c-0.6,0-1.1,0-1.7,0.1
	c-0.6,0-1.1,0-1.7,0c0,0-0.1,0-0.1,0c0,0-0.1,0-0.1,0c-0.6,0-1.1,0-1.7,0c-0.6,0-1.1-0.1-1.7-0.1c0,0-1.1,0-1.1,0h0
	c-0.5,0-1,0-1.4,0.1c-0.7,0.1-1.5,0.2-2.2,0.3c-0.2,0-0.5,0.1-0.7,0.1c-0.5,0.1-1,0.2-1.5,0.3c-0.3,0.1-0.5,0.1-0.8,0.2
	c-0.5,0.1-0.9,0.2-1.4,0.3c-0.3,0.1-0.6,0.2-0.8,0.2c-0.2,0.1-0.4,0.1-0.6,0.2c-0.2,0-0.3,0.1-0.5,0.2c-0.6,0.2-1.3,0.4-1.9,0.6
	c-0.3,0.1-0.5,0.2-0.8,0.3c-1.7,0.6-3.4,1.4-5.1,2.2c-0.3,0.1-0.5,0.3-0.8,0.4c-0.3,0.2-0.7,0.3-1,0.5c-0.2,0.1-0.4,0.2-0.5,0.3
	c-0.6,0.3-1.1,0.6-1.6,1c-0.4,0.2-0.8,0.5-1.1,0.7c-0.6,0.4-1.1,0.7-1.6,1.1c-0.4,0.2-0.7,0.5-1.1,0.7c-0.6,0.4-1.2,0.9-1.8,1.4
	c-0.3,0.2-0.6,0.4-0.8,0.7c-0.8,0.7-1.7,1.4-2.5,2.2c-0.7,0.6-1.4,1.3-2,2c-1.3,1.3-2.6,2.8-3.8,4.2c-0.6,0.7-1.2,1.5-1.8,2.3
	c-0.6,0.8-1.1,1.6-1.7,2.4c-1.1,1.6-2.1,3.3-3.1,5c-0.5,0.9-1,1.7-1.4,2.6c-0.6,1.2-1.2,2.4-1.7,3.6c-0.1,0.3-0.3,0.6-0.4,0.9
	c-1.1,2.5-2,5.1-2.9,7.7c-0.1,0.3-0.2,0.7-0.3,1c-0.8,2.7-1.5,5.4-2,8.2c-0.1,0.4-0.1,0.7-0.2,1.1c-0.5,2.8-0.8,5.7-1,8.6
	c0,0.4,0,0.7-0.1,1.1c-0.1,1.5-0.1,3-0.1,4.5c0,3.7,0.2,7.2,0.7,10.7c0.7,4.9,1.8,9.7,3.3,14.2c23.8,3.9,47.9,10.1,72.5,18.8
	l4.3,1.5l0.1,4.5c1.1,68.5-10.7,146.4-32.2,213.8c-13.5,42.2-35.9,96.3-70.6,138.3c-0.7,13.7-1.2,21.9-1.2,21.9l-0.4,6.3
	c-0.2,1-0.3,2-0.5,3h61.4L293,412.1z"/>
</svg>