<svg version="1.1"
	xmlns="http://www.w3.org/2000/svg"
	xmlns:xlink="http://www.w3.org/1999/xlink" x="0px" y="0px" viewBox="0 0 512 512" width="512" height="512" xml:space="preserve">
	<style type="text/css">
		.st0{
			fill: #00FF79;
		}
	</style>
	<path class="st0" d="M467.8,512c0-70.5-0.8-126.4-15.4-164.7c-15.5-40.6-44.1-64.8-112.1-75.4l-22.3-3.5l14-17.6c20.7-26.1,33.7-63.5,33.7-105.3
	c0-40.9-13.1-77.9-33.6-104C311.8,15.4,284.6,0,254.9,0l0,0c-29.7,0-57,15.3-77.4,41.4s-33.5,63.1-33.5,104
	c0,42.5,14.6,80.6,36.4,107l14.2,17.1l-21.8,4.2c-62.3,11.7-91.8,35.7-108.9,75.8C47.9,387.3,44.5,442,44.1,512h69.3v-71.3h21.8V512
	h241.9v-71.3h22V512H467.8z M292.6,85.1L292.6,85.1c2.3,0.8,5,1.6,7.5,3.3c2.4,1.8,4.7,4,7.1,6c9.9,7.9,19.3,23.2,19.3,23.2
	l-0.5,0.9c0,0-11.9-4.8-23.2-10.4c-2.9-1.3-5.9-2.5-8.5-4c-2.5-1.5-4.4-3.7-6.1-5.4c-3.3-3.7-4.7-13.8-4.7-13.8
	C285.2,83.3,290.6,84.5,292.6,85.1z M294.7,117.9c11.7,0,21.3,9.5,21.3,21.3s-9.5,21.3-21.3,21.3s-21.3-9.5-21.3-21.3
	S283,117.9,294.7,117.9z M238.5,139.2c0,11.7-9.5,21.3-21.3,21.3s-21.3-9.5-21.3-21.3s9.5-21.3,21.3-21.3
	C229,117.9,238.5,127.4,238.5,139.2z M185.9,118.3l-0.5-0.9c0,0,9.4-15.3,19.3-23.2c2.4-2.1,4.7-4.3,7.1-6c2.5-1.5,5.3-2.4,7.5-3.3
	c3-0.7,7.9-2,9.1-0.3c0,0-1.5,10.1-4.7,13.8c-1.8,1.8-3.6,3.8-6.1,5.4c-2.6,1.4-5.6,2.6-8.5,4C197.8,113.5,185.9,118.3,185.9,118.3z
	 M364.6,389.6h-25.2c-3.8,40.1-35.5,71.8-75.5,75.5v25.2h-15.8v-25.2c-40.1-3.8-71.7-35.5-75.5-75.5h-25.2v-15.8h25.2
	c3.8-40.1,35.5-71.8,75.5-75.5v-25.1h15.8v25.1c40.1,3.8,71.8,35.5,75.5,75.5h25.2V389.6z"/>
	<path class="st0" d="M322.2,373.8c-3.6-30.6-27.8-54.8-58.4-58.4v22.1h-15.8v-22.1c-30.6,3.6-54.8,27.8-58.4,58.4h22.1v15.8h-22.1
	c3.6,30.6,27.8,54.8,58.4,58.4V426h15.8V448c30.6-3.6,54.8-27.8,58.4-58.4h-22.1v-15.8H322.2z M288.1,389.6h-24.3v21.7h-15.8v-21.7
	h-24.3v-15.8h24.3v-26.9h15.8v26.9h24.3V389.6z"/>
</svg>
