<svg version="1.1"
	xmlns="http://www.w3.org/2000/svg"
	xmlns:xlink="http://www.w3.org/1999/xlink" x="0px" y="0px" viewBox="0 0 512 512" width="512" height="512" xml:space="preserve">
	<style type="text/css">
	.st0{
		fill:#FF0000;
	}
	</style>
	<path class="st0" d="M244.4,2c36.3,51.5-24.9,338.4-95.6,144.3C98.1,328.9,26.3,336.7,26.2,252.4c-75.8,83.7,46.4,233.1,92.5,257.5h55.1
	c-48.6-42.2-81.3-82.4-87-143.6c50.1,9.9,76.1,22.2,86-65.5c64.2,91.4,106.8-52.2,145.2-113.1c-1.7,42.6-3.5,98.7,24.1,137.2
	c9.2,12.8,35.1,17,57.9,16.7c-10.5,17-47.4,73.3-18,94.2c29.4,20.9,35-0.4,27.4,17.1c-14.1,22.1-24.3,41.6-62.5,57.1h59.4
	c62.9-19.7,118.3-96.8,100.1-143.1c-23.3,19.7-46.4,32.6-64.9,31.1c52-76.1,40-154.1,15.7-233.7c-21.4,76.4-35.5,87.1-57.8,105.1
	C430.3,196.8,309,42.9,244.4,2L244.4,2z"/>
</svg>
