<svg version="1.1"
	xmlns="http://www.w3.org/2000/svg"
	xmlns:xlink="http://www.w3.org/1999/xlink" x="0px" y="0px" viewBox="0 0 512 512" width="512" height="512" xml:space="preserve">
	<style type="text/css">
	.st0{
		fill:#FF0000;
	}
	</style>
	<path class="st0" d="M449.4,265c25.4-59,8-116.6-30.2-148.2c-7.2-5.9-15.1-11-23.5-14.9l0,0c-33.4-15.5-75.6-14.3-115.7,11.6
	C270.6,57.6,231,19.1,186,8.3C137.2-3.4,81.9,18.4,54.8,81.3c-25.3,58.9-11,115.3,10.3,172.8c21.2,57.4,49.3,116.9,55.2,184.8
	l1.3,14.6l12-8.4c55.6-38.9,119.9-53,178-72.4C369.6,353.2,422.4,327.5,449.4,265z M306.2,356.6c-53.1,17.7-114.6,31.5-170.6,66.8
	c-8.5-65.6-35.2-122.5-54.7-175.2C60,191.8,47.4,141.2,70.3,88c24.4-56.7,70.2-73.2,111.8-63.2c41.6,10,78.8,47.5,82.8,104.3
	l1.1,15.8l12.5-9.8c39.3-30.7,79-32.8,110-18.1l0,0c7.1,3.4,13.8,7.7,19.9,12.7c32.5,26.9,48.3,75.7,25.5,128.6
	C409.4,315.1,363,337.6,306.2,356.6z"/>
	<path class="st0" d="M-469.5,168.9C-469.7,168.7-469.6,168.7-469.5,168.9C-469.6,169.1-469.7,169.2-469.5,168.9
	C-469.5,168.9-469.5,168.9-469.5,168.9C-469.5,168.9-469.5,168.9-469.5,168.9z"/>
	<polygon class="st0" points="-469.5,168.9 -469.5,168.9 -469.5,168.9 -469.5,168.9 -469.5,168.9 "/>
	<path class="st0" d="M387.3,294.6c-3.3-7.3-22.7-23.3-35.7-32.9c-26.1-19.2-64.7-41.7-109.3-62.5l0,0c-44.6-20.8-86.4-37.3-118.1-43.7
	c-41.6-8.3-48.6-3.9-48.8-3.8c0,0,0,0,0,0l0,0l0,0c-3.3,0.1,2.2,30.6,2.2,30.6c13.9,63.7,57.2,132.5,69,216.6
	c40.5-24.8,84.1-37.8,124.7-49.8c33.8-10,65.3-19.6,91.3-34.3C362.7,314.8,389.6,299.6,387.3,294.6z"/>
	<path class="st0" d="M462.1,409.5c-0.4-0.8-49.4-80.4-49.4-80.4s-49,79.6-49.4,80.4c-5.1,10.7-8.6,21.3-8.6,33.6c0,17.6,6.7,34.6,18.2,46.7
	c11.4,11.9,25.8,17.2,39.9,16.9c24.9-0.5,49.3-18.3,56-47.8c1.2-5.1,1.7-10.4,1.7-15.7C470.7,430.9,467.2,420.3,462.1,409.5z
	 M452.1,453.8c-4.7,20.6-21.8,33.1-39.2,33.5c-9.9,0.2-19.9-3.5-27.9-11.8c-1.3-1.3-2.4-2.7-3.5-4.2c5,1.8,10.1,2.6,15.3,2.5
	c20.7-0.4,40.8-15.6,46.4-40.7c1-4.4,1.4-8.9,1.4-13.4c0-1.8-0.1-3.6-0.3-5.3c1.8,3,3,4.9,3,5c3.5,7.5,6,14.9,6,23.5
	C453.3,446.5,452.9,450.2,452.1,453.8z"/>
</svg>
