<svg version="1.1"
	xmlns="http://www.w3.org/2000/svg"
	xmlns:xlink="http://www.w3.org/1999/xlink" x="0px" y="0px" viewBox="0 0 512 512" width="512" height="512" xml:space="preserve">
	<style type="text/css">
		.st0{
			fill: #FFCA45;
		}
	</style>
	<path class="st0" d="M290,34.2L279.6,0h-57.2l-10.8,36c14.4-3,29.1-4.4,44.4-4.4C267.6,31.6,279,32.5,290,34.2z"/>
	<path class="st0" d="M256,451.9c110,0,199-88.9,199-199c-0.1-110.1-89-199-199-199S57,142.9,57,253C57,362.9,146,451.9,256,451.9z M256,100
	c84.5,0,152.9,68.5,152.9,152.9S340.5,405.9,256,405.9S103.1,337.4,103.1,253C103.1,168.4,171.5,100,256,100z"/>
	<path class="st0" d="M255.9,362.7c60.6,0,109.9-49.1,109.9-109.9c0-60.7-49.1-109.9-109.9-109.9C195.2,143,146,192.1,146,252.9
	C146,313.6,195.3,362.7,255.9,362.7z M256,186.8c36.5,0,66,29.6,66,66c0,36.5-29.6,66-66,66c-36.5,0-66-29.6-66-66
	C189.9,216.4,219.5,186.8,256,186.8z"/>
	<path class="st0" d="M256,284.9c17.7,0,31.9-14.4,31.9-32c0-17.7-14.2-31.9-31.9-31.9s-32,14.2-32,31.9C224,270.5,238.3,284.9,256,284.9z"/>
	<path class="st0" d="M69,512h51.8l22.4-68.8c-15.9-9.5-30.5-20.9-43.5-33.8L69,512z"/>
	<path class="st0" d="M361.9,447.2l21.3,64.8H435l-29.3-96.3C392.5,427.9,377.8,438.5,361.9,447.2z"/>
	<path class="st0" d="M223.5,471.8V512h57.5v-39.2c-8.3,0.9-16.6,1.4-25.1,1.4C245,474.1,234.1,473.4,223.5,471.8z"/>
</svg>
