<svg version="1.1"
	xmlns="http://www.w3.org/2000/svg"
	xmlns:xlink="http://www.w3.org/1999/xlink" x="0px" y="0px" viewBox="0 0 512 512" width="512" height="512" xml:space="preserve">
	<style type="text/css">
		.st0{
			fill: #00FF79;
		}
		.st1{
			fill:none;
		}
	</style>
	<polygon class="st0" points="34.9,44.4 63.6,68.3 95.3,48.8 81.5,83.3 112.4,107.7 75,105.2 58.6,139.6 49.5,103.3 12.2,100.6 43.8,80.7 "/>
	<polygon class="st0" points="467.7,15.3 470.3,37.5 492.2,42 471.8,51.3 474.3,73.5 459.2,57.1 438.8,66.3 449.7,46.8 434.7,30.3 456.7,34.6 "/>
	<polygon class="st0" points="55.8,388.6 76.5,413.2 106.5,401.3 89.4,428.6 110,453.4 78.8,445.7 61.5,473 59.2,440.8 28.1,432.8 57.9,420.7 "/>
	<polygon class="st1" points="374.4,381.8 352.9,386.8 348,365.3 317.1,372.4 322,393.9 300.5,398.8 307.7,429.8 329.1,424.8 
	334,446.3 365,439.2 360.1,417.7 381.5,412.8 "/>
	<polygon class="st1" points="223.9,416.4 202.5,421.4 197.5,399.9 166.6,407 171.5,428.5 150.1,433.4 157.2,464.4 178.6,459.4 
	183.6,480.9 214.5,473.8 209.6,452.3 231,447.4 "/>
	<path class="st0" d="M501.5,453.2C501.5,344.3,418,256,315,256s-186.5,88.3-186.5,197.2c0,20.5,3,40.2,8.4,58.8H493
	C498.5,493.4,501.5,473.7,501.5,453.2z M214.5,473.8l-30.9,7.1l-4.9-21.5l-21.5,4.9l-7.1-30.9l21.5-4.9l-4.9-21.5l30.9-7.1l4.9,21.5
	l21.5-4.9l7.1,30.9l-21.5,4.9L214.5,473.8z M365,439.2l-30.9,7.1l-4.9-21.5l-21.5,4.9l-7.1-30.9l21.5-4.9l-4.9-21.5l30.9-7.1
	l4.9,21.5l21.5-4.9l7.1,30.9l-21.5,4.9L365,439.2z"/>
	<path class="st0" d="M473.2,110.4c-1.2-1.5-2.5-3-3.8-4.4c-26.1-28.4-70.3-32.5-106.7-33.2c0.3-13.6-3.8-27.7-13.8-37
	c-11.2-10.4-27.4-13-42.7-14c-71.8-4.9-152.5,25.3-205.4,53.1c58.6-20.1,118.1-41.8,180-37.6c7.4,0.5,27.5,3,34,6.6
	c12.3,6.9,17,17.2,18.7,29.9c-35.8,2.7-71.6,10.8-106.2,20.7c-49.2,14.1-97.8,31.9-141.2,59.2c-21.3,13.4-41.7,29.5-54.4,51.2
	c-7.1,12.1-11.5,27.8-4.5,40c6.1,10.6,23.8,23.5,35.6,26.5c50.3,12.9,99.6,1.3,148-17.6c38.6-15.1,73-40.3,99.9-71.8
	c17.2-20.2,35.1-47.6,44.8-74.9c20.1,1.7,39.9,1.5,59.1,8c15.5,5.2,32.6,20.3,33.3,36.6c0.4,8.5-4.1,16.4-9,23.4
	c-12.8,17.8-30,32.1-48.3,44.2c-40.3,26.8-86.3,43.9-132.6,58C203,294,83.3,318.1,23.7,316.7c0.7,0,81.3,24.8,116.6,21.7
	c61.5-5.5,142-20.1,197-46.5c47-22.5,99.6-47.9,133.2-89.1C492.4,175.8,495.1,138.4,473.2,110.4z M275,188.1
	c-26.9,25.6-60.8,42.8-95.5,56.3c-22.7,8.8-46.7,16.3-70.9,13.8c-17.6-1.8-37-11.9-39.3-29.5c-1.9-14.8,9.2-27.9,20.4-37.8
	c42.8-37.9,97.3-60.5,153-73.3c27.9-6.4,56.8-10.4,85.5-10.6C318.1,137.2,295.4,168.6,275,188.1z"/>
</svg>
