<svg version="1.1"
	xmlns="http://www.w3.org/2000/svg"
	xmlns:xlink="http://www.w3.org/1999/xlink" x="0px" y="0px" viewBox="0 0 512 512" width="512" height="512" xml:space="preserve">
	<style type="text/css">
	.st0{
		fill:#489DFF;
	}
	.st1{
		fill:none;
	}
	</style>
	<path class="st0" d="M448.8,157.7C448.8,157.7,448.8,157.7,448.8,157.7c-1.7-1.1-3.6-2.1-5.5-3.1c0,0,0,0,0,0c12.4-7.6,23.2-19.2,30.4-34
	c1.6-3.4,3.1-7,4.3-10.7c0.5-1.5,0.9-3.1,1.4-4.6c0.1-0.4,0.2-0.8,0.3-1.2c0.8-3.1,1.4-6.1,1.9-9.2c0.1-0.4,0.1-0.8,0.2-1.1
	c0.4-3.1,0.7-6.1,0.7-9.1c0-0.4,0-0.8,0-1.1c0-3-0.1-6-0.3-8.9c0-0.4-0.1-0.7-0.1-1.1c-0.2-1.4-0.3-2.9-0.6-4.3
	c-0.2-1.1-0.4-2.1-0.6-3.2c-0.4-2.1-0.9-4.2-1.5-6.2c-0.3-1-0.6-2-0.9-3c-0.3-1-0.7-2-1.1-2.9c-0.7-1.9-1.6-3.8-2.5-5.6
	c-0.4-0.9-0.9-1.8-1.4-2.7c-0.6-1.1-1.2-2.1-1.8-3.1c-0.2-0.3-0.4-0.7-0.6-1c-0.4-0.7-0.9-1.3-1.3-2c-0.3-0.4-0.6-0.7-0.8-1.1
	c-0.4-0.6-0.9-1.1-1.3-1.7c-0.3-0.4-0.6-0.7-0.9-1.1c-0.4-0.5-0.9-1-1.4-1.6c-0.2-0.2-0.3-0.3-0.4-0.5c-0.3-0.3-0.6-0.6-0.8-0.9
	c-0.2-0.2-0.4-0.4-0.6-0.7c-1.4-1.4-2.9-2.7-4.4-4c-0.2-0.2-0.5-0.4-0.7-0.6c-0.6-0.4-1.1-0.9-1.7-1.3c-0.1-0.1-0.3-0.2-0.4-0.3
	c-0.2-0.1-0.3-0.2-0.5-0.3c-0.3-0.2-0.5-0.3-0.8-0.5c-0.4-0.3-0.8-0.5-1.3-0.8c-0.3-0.2-0.5-0.3-0.8-0.5c-0.5-0.3-0.9-0.5-1.4-0.8
	c-0.2-0.1-0.5-0.3-0.7-0.4c-0.7-0.4-1.4-0.7-2.2-1.1c-0.5-0.2-0.9-0.4-1.4-0.6h0l-1.1-0.4c-0.6-0.2-1.2-0.3-1.8-0.5
	c-0.6-0.2-1.2-0.3-1.7-0.5c0,0-0.1,0-0.1,0c0,0-0.1,0-0.1,0c-0.6-0.2-1.1-0.4-1.7-0.6c-0.6-0.2-1.1-0.4-1.7-0.6c0,0-1.1-0.4-1.1-0.4
	h0c-0.5-0.2-1-0.3-1.5-0.4c-0.8-0.2-1.6-0.3-2.4-0.4c-0.3,0-0.5-0.1-0.8-0.1c-0.5-0.1-1.1-0.1-1.6-0.2c-0.3,0-0.6-0.1-0.9-0.1
	c-0.5,0-1-0.1-1.5-0.1c-0.3,0-0.6,0-0.9,0c-0.2,0-0.4,0-0.6,0c-0.2,0-0.4,0-0.5,0c-0.7,0-1.4,0-2.1,0c-0.3,0-0.6,0-0.9,0
	c-2,0.1-4,0.3-5.9,0.6c-0.3,0-0.6,0.1-0.9,0.2c-0.4,0.1-0.8,0.1-1.2,0.2c-0.2,0-0.4,0.1-0.7,0.1c-0.7,0.1-1.3,0.3-2,0.5
	c-0.5,0.1-0.9,0.2-1.4,0.4c-0.7,0.2-1.4,0.4-2.1,0.6c-0.4,0.1-0.9,0.3-1.3,0.4c-0.8,0.2-1.5,0.5-2.2,0.8c-0.4,0.1-0.7,0.3-1.1,0.4
	c-1.1,0.4-2.2,0.9-3.3,1.4c-0.9,0.4-1.8,0.9-2.7,1.3c-1.8,0.9-3.6,2-5.3,3.1c-0.9,0.6-1.7,1.1-2.6,1.7c-0.9,0.6-1.7,1.2-2.5,1.9
	c-1.7,1.3-3.3,2.6-4.9,4.1c-0.8,0.7-1.6,1.5-2.3,2.2c-1,1-2,2.1-3,3.1c-0.2,0.3-0.5,0.5-0.7,0.8c-1.9,2.2-3.8,4.5-5.5,6.9
	c-0.2,0.3-0.4,0.6-0.6,0.9c-1.7,2.5-3.3,5.1-4.8,7.8c-0.2,0.3-0.4,0.7-0.5,1c-1.4,2.7-2.8,5.6-3.9,8.5c-0.1,0.4-0.3,0.7-0.4,1.1
	c-0.6,1.5-1.1,3-1.6,4.5c-1.2,3.7-2.2,7.5-2.9,11.2c-3,16.2-1.2,32,4.3,45.4c0,0,0,0,0,0c-2.2-0.4-4.3-0.6-6.3-0.8c0,0,0,0,0,0
	c-1.2-0.1-2.5-0.1-3.7-0.1c-22.1-0.4-42.6,9-59.8,21.1c-3.5,2.5-7.2,5.2-11,8.1h111.3v276.8c1.9-7.6,3.9-15.2,5.7-22.5
	c20.1-74.2,40.5-150,40.5-150c1.6-5,9.3,12.9,9.8,14.5c2.1,7.5,2.9,15.3,2.8,23.1c-0.2,20.3-4.6,40.7-7.5,60.7
	c-2.2,15-4.4,30.1-6.5,45.1c-1.9,6.8,2.2,14,9.2,16.3l4.3,1.4c0,0,2.5,0.8,2.5,0.8c6.5,2.1,13.4-0.5,16.4-6.2
	C516,326.6,505.8,193.9,448.8,157.7z"/>
	<path class="st0" d="M208.2,156c0-15.3,12.4-27.7,27.7-27.7s27.7,12.4,27.7,27.7H208.2z"/>
	<circle class="st1" cx="276.1" cy="236.3" r="8.6"/>
	<circle class="st1" cx="344.4" cy="236.3" r="8.6"/>
	<circle class="st1" cx="311.2" cy="202.7" r="8.6"/>
	<circle class="st1" cx="311.2" cy="271" r="8.6"/>
	<line class="st0" x1="52.7" y1="280.5" x2="52.7" y2="280.5"/>
	<path class="st0" d="M370.4,190.8l-84,84V512h84V190.8z M311.2,279.6c-4.8,0-8.6-3.9-8.6-8.6c0-4.8,3.9-8.6,8.6-8.6c4.8,0,8.6,3.9,8.6,8.6
	C319.8,275.8,315.9,279.6,311.2,279.6z M344.4,244.9c-4.8,0-8.6-3.9-8.6-8.6s3.9-8.6,8.6-8.6c4.8,0,8.6,3.9,8.6,8.6
	S349.2,244.9,344.4,244.9z"/>
	<polygon class="st0" points="190.5,439.6 131.3,498.8 131.3,512 190.5,512 "/>
	<polygon class="st0" points="90.7,512 267,335.7 267,280.5 211.8,280.5 0,492.3 0,512 "/>
	<polygon class="st0" points="267,363.1 209.9,420.2 209.9,512 267,512 "/>
	<polygon class="st0" points="111.9,352.9 111.9,280.5 52.7,280.5 53.3,411.5 "/>
	<polygon class="st0" points="184.4,280.5 131.3,280.5 131.3,333.6 "/>
	<path class="st0" d="M272.7,261.1l84-84H0v84H272.7z M311.2,194.1c4.8,0,8.6,3.9,8.6,8.6c0,4.8-3.9,8.6-8.6,8.6c-4.8,0-8.6-3.9-8.6-8.6
	C302.5,198,306.4,194.1,311.2,194.1z M276.1,227.7c4.8,0,8.6,3.9,8.6,8.6s-3.9,8.6-8.6,8.6c-4.8,0-8.6-3.9-8.6-8.6
	S271.3,227.7,276.1,227.7z"/>
	<polygon class="st0" points="34,430.8 33.3,280.5 0,280.5 0,464.8 "/>
</svg>
