<svg version="1.1"
	xmlns="http://www.w3.org/2000/svg"
	xmlns:xlink="http://www.w3.org/1999/xlink" x="0px" y="0px" viewBox="0 0 512 512" width="512" height="512" xml:space="preserve">
	<style type="text/css">
		.st0{
			fill: #FFCD00;
		}
	</style>
	<polygon class="st0" points="54.9,0 147.8,75.5 127.9,97.5 249.7,157.6 181.4,38.4 158.8,63.3 87,0 "/>
	<path class="st0" d="M405.5,129.6c-1.4-0.4-2.8-0.8-4.2-1.3c-4.2-1.3-8.5-2.5-12.7-3.6c-43.6-11.4-86.5-12.8-119.6,0.3
	c-23.2,67-41.3,133.6-42.5,192c-1.3,58,13.6,107,55.6,141.9c49.9-4.1,94.8-39.5,133.3-91.8c38.3-52.2,69.6-120.3,93.1-186.4
	C479,159.9,442.7,141.5,405.5,129.6z M398.5,346.1c-28.8,41.7-63.3,73.1-105.2,76.6l-4.2,0.3l-3.1-2.6
	c-33-28.3-42.9-69.7-40.5-115.4s17-96.6,34.6-147.2l1.2-3.1l3.1-1.6c27.5-13.8,61.1-13.2,93.3-4.9c3,0.7,6,1.6,9,2.5l0,0
	c1,0.3,2,0.6,3,0.9c27.9,8.9,54.5,23.3,75.7,40.1l4.7,3.8l-1.9,5.4C450.6,251.5,427.3,304.4,398.5,346.1z"/>
	<path class="st0" d="M373,164.6c-27.7-7.1-54.9-7.2-76.2,2.2c-16.9,48.9-30.4,97.5-32.6,139.4c-2.2,41.3,6.3,75.3,31.4,99
	c31.1-4.6,61-30.4,87.2-68.4c26.5-38.2,48.6-87.9,65.7-135.9C430,187,407.3,175.1,384,167.6C380.2,166.6,376.6,165.5,373,164.6z"/>
	<polygon class="st0" points="132.3,145.7 121.1,173.4 0,122.9 0,144 114.9,188.7 103.8,216.4 232.6,227.8 "/>
	<polygon class="st0" points="106.9,256.3 106.3,281.5 0,280.1 0,299.5 105.9,298 105.2,327.7 222.4,293.2 "/>
	<polygon class="st0" points="225.5,371.8 94.6,372.2 102.7,401.1 0,427.5 0,446.2 107.2,416.9 115.3,445.8 "/>
</svg>
