<svg version="1.1"
	xmlns="http://www.w3.org/2000/svg"
	xmlns:xlink="http://www.w3.org/1999/xlink" x="0px" y="0px" viewBox="0 0 512 512" width="512" height="512" xml:space="preserve">
	<style type="text/css">
		.st0{
			fill: #FFCA45;
		}
	</style>
	<path class="st0" d="M495.8,459.3c1.2-0.9,2.4-2,3.4-3.2c9-10.1,9.1-25.3,8.5-39c-0.4-9-1-18.2-4.2-26.7c-1.8-4.7-4.4-8.9-7-13.2
	c-18.7-30.8-37.4-61.7-56.1-92.5c-2-3.2-3.9-6.5-4.9-10.2c-0.7-2.8-0.9-5.8-0.9-8.7c-0.2-12.8,1.3-25.7,4.3-38.1
	c0.5-2.2,1.1-4.3,1-6.6c-0.2-2.5-1.2-4.9-2.3-7.2c-4.3-9.2-9.2-18.5-16.8-25.1c-2.3-2-4.9-3.7-7.9-4.4c-2.8-0.6-5.7-0.3-8.6,0.1
	c-16.1,2.4-58.1,13.4-53.1,37.2c4.9,23.4,21.5,46.5,38.9,61.8c1.9,1.7,4,3.4,5.2,5.7c0.9,1.7,1.3,3.7,1.7,5.7
	c5.1,25.7,10.1,51.3,15.2,77c2.6,13,5.1,26.1,7.7,39.1c2.1,10.6,2.2,21.6,9.1,30.4c4.6,5.9,10.8,10.4,17.2,14.2
	c8.3,4.9,17.3,8.9,26.9,9.7C481,466.1,489.5,464.2,495.8,459.3z"/>
	<path class="st0" d="M339.4,102.8c-11.4-29.8-38.7-58.2-74.7-59.1c-0.6,0-1,0-1.6,0c-22.4,0-43.1,10.7-58.8,31.4
	c-34.7,45.6-31.3,125.9,3.1,171.1c15.8,20.8,33.5,28.7,55.9,28.7c22.4,0,44.5-10.7,58.8-32.6c33-50.3,26.2-107.2,22.4-123.1
	C343.2,113.7,341.6,108.2,339.4,102.8z M207.2,157.3c6.9-11.5,27.1-10.6,38.6,2.9c-7.4-10.3-18.6-18.3-37.9-19.1l-7.9-31.4
	c21.4,11.3,42.9,22.5,54.1,42.7c-1.4,4.8-2.4,9.9-3.8,14.7L207.2,157.3z M297.4,245c0,0-17.1-16.5-33.2-15.2
	c-15.9,1.2-30.1,18.4-30.1,18.4c-18.9-10.7-33.9-32.1-23.2-50.2c1.4-2.2,3.1-3.2,5.2-3.2c9.3,0,26.4,16.9,47.7,15.6
	c19-1.1,35.2-23.9,47.2-10.3C324.3,215.1,306.3,238.2,297.4,245z M317.9,139.5c-16.6,1.2-29.5,11.4-36.7,19.7
	c7.9-4.1,23-11.6,32.8-10c5.1,0.9,10.6,7.9,5.1,13.7c-13-4-31.5-0.6-42.6,3.2c-1.1-4.9-3.2-10.1-4.6-14.3
	c10.8-20.8,32.6-32.5,54-44.4L317.9,139.5z"/>
	<path class="st0" d="M383.7,296.6c-0.6-2-29.4-24-41.4-63.5c-7.6,38-108.6,111.4-163.2-11.6c0,0-16.8-9-41.8,3.3C108,239.2,47.9,269.2,6.8,292.4
	c-13,48.9,10.5,79.3,5.7,124.1l8.2,41.3c-13,20.4,2.7,41.6,23.3,40c13.8-1.9,42.7-7.2,51.2-19.6c5.8-8.4,4.9-28.5,4.9-28.5
	c-3.1-13.5-29.4-32.6-34.5-43.5c-6-19.1,0.3-28.5,3.3-69c0,0,43.5,0.6,64.1-8.8c5.8-2.6,8.4-2.9,9.5,3.4c0,0-2.6,31.9,18.1,177.2
	h216.8C377.6,509.1,395.8,342.1,383.7,296.6z"/>
	<polygon class="st0" points="372,159.3 485.5,97 427.4,79.1 482.6,3.2 374.3,91.2 423.4,104.8 "/>
	<polygon class="st0" points="102.7,104.8 151.8,91.1 43.6,3.2 98.7,79.1 40.7,97 154,159.3 "/>
</svg>
