<svg version="1.1"
	xmlns="http://www.w3.org/2000/svg"
	xmlns:xlink="http://www.w3.org/1999/xlink" x="0px" y="0px" viewBox="0 0 512 512" width="512" height="512" xml:space="preserve">
	<style type="text/css">
	.st0{
		fill:#CD59F7;
	}
	.st1{
		fill:none;
	}
	</style>
	<path class="st0" d="M511,0.5L332.6,36L107.1,354.2c-17.2-21.3-32-44.7-44.5-70.3l-28.3,28.5c12.6,29.1,28.5,55,47.4,77.8l-45.2,64
	c-5.1-3.6-10.4-6.5-15.2-7.8L0,479.3l0,0C0.9,500,12.2,512,32.4,511.7l32.9-21.2c-1.3-4.7-4.1-10.1-7.8-15.2l64.1-45.5
	c22.2,18.2,47.5,33.5,75.7,45.7l28.5-28.3c-25.2-12.1-47.9-26.3-68.3-42.7L475.6,179L511,0.5z M122.8,372.4L122.8,372.4l210.1-237.7
	l71.4-27.4l-27.5,71.2L139.2,388.7C133.5,383.4,128,378,122.8,372.4z"/>
	<polygon class="st0" points="415.8,2.3 215.9,3.6 258.4,40.5 92.8,50.5 92.8,50.5 226.5,80.4 140.3,107.4 215.9,126.7 162.8,155.4 224.7,156 
	322.7,18.6 "/>
	<polygon class="st0" points="334.6,300.3 332.7,337.9 332.7,337.9 357.1,307.8 361.5,346.5 382,284.7 386.4,397.8 415.8,274.8 435.8,382.8 
	463.3,246.6 510.2,318.5 512,95.5 495.7,188.6 "/>
</svg>
