<svg version="1.1"
	xmlns="http://www.w3.org/2000/svg"
	xmlns:xlink="http://www.w3.org/1999/xlink" x="0px" y="0px" viewBox="0 0 512 512" width="512" height="512" xml:space="preserve">
	<style type="text/css">
		.st0{
			fill: #00FF79;
		}
	</style>
	<path class="st0" d="M256.3,6.5L256.3,6.5L256.3,6.5z"/>
	<path class="st0" d="M207.1,33.2c29.9-12.3,68.4-12.3,98.2,0c15.3,9.5,26.5,21.2,36.8,33.8h25c-4.9-6.7-10-13.1-15.3-19.4
	c-10.7-12.5-23.8-26.5-38.8-32.7c-17.6-7.3-37.2-10.9-56.7-10.9s-39,3.6-56.7,10.9c-15.3,6.3-28.3,20.3-39,32.7
	c-5.4,6.3-10.5,12.8-15.3,19.4h25C180.3,56,193.8,39.1,207.1,33.2z"/>
	<path class="st0" d="M153.4,247.3c23.6,15.2,50.5,24.1,73,28.3v-49.8h59.5v49.8c22.5-4.3,49.4-13.1,72.9-28.3c35.4-22.9,63.8-58.9,63.8-117.3
	c-0.1-17.6-27.6-41.6-43-43h-247c-17.9,2.3-42.7,25.4-43,43l0,0C89.6,188.3,118,224.4,153.4,247.3z"/>
	<path class="st0" d="M369.6,263.9c-27.7,17.9-58.1,27.7-83.7,32v37.9h-59.5v-37.9c-25.6-4.3-56.1-14.1-83.8-32c-20.7-13.5-39.8-31.8-53.3-55.6
	l0.2,299.7h333l-0.2-299C409,232.5,390.1,250.6,369.6,263.9z M235.2,488.2H109.5V362.5h125.7V488.2z M402.8,488.2H277.1V362.5h125.7
	V488.2z"/>
	<rect class="st0" x="246.2" y="245.6" width="19.8" height="68.4"/>
	<path class="st0" d="M172.4,437.5c12.2,0,26.9-9.5,43-32.9v-22.3h-86v22.3C145.5,428,160.1,437.5,172.4,437.5z"/>
	<path class="st0" d="M340,437.5c12.2,0,26.9-9.5,43-32.9v-22.3h-86v22.3C313.1,428,327.7,437.5,340,437.5z"/>
	<path class="st0" d="M215.4,436.2c-13.3,13.7-27.6,21.3-43,21.3s-29.7-7.6-43-21.3v32.3h86V436.2z"/>
	<path class="st0" d="M383,436.2c-13.3,13.7-27.6,21.3-43,21.3s-29.7-7.6-43-21.3v32.3h86V436.2z"/>
</svg>
