<svg version="1.1"
	xmlns="http://www.w3.org/2000/svg"
	xmlns:xlink="http://www.w3.org/1999/xlink" x="0px" y="0px" viewBox="0 0 512 512" width="512" height="512" xml:space="preserve">
	<style type="text/css">
		.st0{
			fill: #FFCA45;
		}
	</style>
	<path class="st0" d="M510.1,16c-181.6,115.5-242.9,97.4-337.3,144.5c-37.4,18.6-37.7,59.4-8.1,85.1c29.9,29.2-13.8,91.5-32.2,114.4
	c-18.3,22.8-40.4,43.2-65.7,58.1c-20.9,12.4-72.1,17.2-64,50.8C5.7,481,16.1,490.4,28,494.1c11.4,3.5,24.3,2.2,34.5-3.9
	c15.6-9.2,19-27.2,28.2-41.5c10.1-15.8,26.2-24.8,43.3-31.4c26.2,9.8,59.6,14.6,86.6,8.9c-20.9-12.3-36.6-30-41.1-45.5
	c35.6,18.3,86.9,28.6,119.5,14.8c-32.5-12.1-61.9-27.9-86.7-49.2c52.7,8,138.1,32.2,191.1,5.8c-60.3-8.9-117.7-25.4-168.1-51.3
	c91.4,14.7,200.3,16.1,241.8-29.4c-83.1,2.4-150.6-6.2-225.5-25.9c100.2-8.1,210.9-25.9,242.5-86.9
	c-74.1,22.2-173.4,29.8-240.3,29.4C359,162.9,499.8,92.4,510.1,16z"/>
</svg>
