<svg version="1.1"
	xmlns="http://www.w3.org/2000/svg"
	xmlns:xlink="http://www.w3.org/1999/xlink" x="0px" y="0px" viewBox="0 0 512 512" width="512" height="512" xml:space="preserve">
	<style type="text/css">
	.st0{
		fill:#FF0000;
	}
	</style>
	<path class="st0" d="M373.2,14.6c-1.1,0-2.1,0-3.2,0l0,0c-44.5,0.6-89.7,23.8-118.9,74.3C206-37.5-2.7,7.1,2.1,158.1c0.6,21.6,5.5,41.8,13.4,61
	h82l22.7-79.5l28.3,96.7l19.8-69l18.5,51.8h144.9l22.7-79.5l28.3,96.7l19.8-69l18.5,51.8h77.8c7.6-19.5,11.7-39.8,11-61
	C507.1,69.1,441.4,15.3,373.2,14.6L373.2,14.6z"/>
	<path class="st0" d="M120.4,209.1l-8.4,29.4H24.5C83,349,236.6,423.6,256.4,497.4c18-67.2,177.1-149.7,233.8-259h-82.6l-2.9-8L383,305.7
	l-28.3-96.7l-8.4,29.4H173.2l-2.9-8l-21.6,75.3L120.4,209.1L120.4,209.1z"/>
</svg>
