<svg version="1.1"
	xmlns="http://www.w3.org/2000/svg"
	xmlns:xlink="http://www.w3.org/1999/xlink" x="0px" y="0px" viewBox="0 0 512 512" width="512" height="512" xml:space="preserve">
	<style type="text/css">
	.st0{
		fill:#D59754;
	}
	.st1{
		fill:none;
	}
	</style>
	<path class="st0" d="M259-0.4c0,0-24.9,24.6-24.9,40.4c0,19.3,30.7,49.3,30.7,49.3C249.9,58.5,248.2,29.5,259-0.4z"/>
	<path class="st0" d="M420.3,5.5c0,0,3.9,27.2,1.8,40.6c-1.5,9.6-10,27.6-10,27.6s35.2-15.4,36.8-31.5C450.5,26.7,420.3,5.5,420.3,5.5z"/>
	<path class="st0" d="M369.2,19.2c-0.1,7.7-1,15.4-2.5,22.7c-3.8,17.1-10.6,32.8-23,41.8c-8.9,6.5-22.1,9-35.1,3.2c-10-4.4-20.5-12.7-32.8-25.8
	c-1.4,10.7-0.3,23.6,7.5,37.7l13.2,23.9L271,112.6c-15.3-6.2-27.1-19.1-39.1-33.9c-0.5,21.6-0.4,44.7,3.6,65.3
	c5.7,29.2,17.7,51.8,47.3,60.9c-6.6-11.8-6.7-25.2,0.9-40.1c22.1,26.9,26.4,3,36-1.7c6.3-3.1,10.3-17.2,6.2-45.8
	c8.1,14.4,16.9,34.7,32,38.3c20.1,5,35.5-14.7,50.4-37.7c0,0-7.7,34.7,0,46.8c3.4,5.3,6.3,9.1,24.8,8.6c-17.1,20.4-33.4,32.8-64,47
	c56.3-3,106.2-40.8,136.1-78.1c-14.2,3.8-23.2,4.7-37.4,4.1l-25-0.9l19.1-16.2c12.7-10.9,21.3-32.4,25.3-54.8
	c2.5-13.6,3.1-27.3,2.8-39.1c-8.1,8-17.1,16.8-27,25.7c-16.6,14.8-33.9,29-50,36.3l-10.6,4.8l-2.8-11.3
	C393.2,65.9,384.1,38.7,369.2,19.2L369.2,19.2z"/>
	<path class="st0" d="M278.5,224.4c-6.7,5.1-14.2,10.9-22.3,17.5c-27.9,22.5-63,52.3-98.3,83c-35.1,30.7-70.4,62.2-98.5,88.3
	c-24.3,22.6-43,41.2-51.5,50.7l29.1-10.6L10.3,475c1.5,2.6,3.6,5.2,6.5,8.2c1.7,1.7,3.9,3.8,6.5,5.8l93.8-73.7l-21.8,24.4
	l-55.5,61.9c4.2,3,8.9,6.3,14.1,9.7c92.1-90.6,185.5-181.1,285.2-271.8c-10-0.5-18.7-1.6-27.6-3.7l-61.3,49.1l44.4-54.2
	C289.5,229.1,284.2,226.9,278.5,224.4L278.5,224.4z"/>
</svg>
