<?xml version="1.0" encoding="utf-8"?>
<!-- Generator: Adobe Illustrator 25.0.0, SVG Export Plug-In . SVG Version: 6.00 Build 0)  -->
<svg version="1.1" id="Layer_1" xmlns="http://www.w3.org/2000/svg" xmlns:xlink="http://www.w3.org/1999/xlink" x="0px"
	y="0px" viewBox="0 0 512 512" style="enable-background:new 0 0 512 512;" xml:space="preserve">
	<style type="text/css">
		.st0 {
			fill: none;
		}

		.st1 {
			fill: #fefefe;
		}

		.st2 {
			fill: none;
		}
	</style>
	<path class="st0"
		d="M32,0h448c17.7,0,32,14.3,32,32v448c0,17.7-14.3,32-32,32H32c-17.7,0-32-14.3-32-32V32C0,14.3,14.3,0,32,0z" />
	<path class="st1" d="M-469.5,168.9C-469.7,168.7-469.6,168.7-469.5,168.9C-469.6,169.1-469.7,169.2-469.5,168.9L-469.5,168.9
	L-469.5,168.9z" />
	<polygon class="st1" points="-469.5,168.9 -469.5,168.9 -469.5,168.9 -469.5,168.9 " />
	<circle class="st1" cx="75.6" cy="54.1" r="11.2" />
	<circle class="st1" cx="53.6" cy="276.9" r="11.2" />
	<circle class="st1" cx="453.6" cy="218.9" r="11.2" />
	<circle class="st1" cx="442.5" cy="35.4" r="11.2" />
	<polygon class="st2" points="252.2,411.6 243.8,512 282.2,512 273.8,411.6 " />
	<path class="st1" d="M251.8,410.3h21.9l8.5,101.7h55.7l-1.2-18.8c0-0.1,0-0.2,0-0.3c0-17.4-3.1-76-6.5-123.5
	c-3.4-65.2-7-131.7-7-131.7c0-4.4,10.9,8,11.7,9.1c3.7,5.5,6.4,11.6,8.4,17.8c5.2,16.4,7,34,10,50.9c2.2,12.7,4.4,25.4,6.6,38.1
	c0.2,6,5.4,10.7,11.8,10.7h3.8c0,0,2.2,0,2.2,0c5.8,0,10.7-3.9,11.6-9.3c14.2-84.5-29.1-188.9-84.6-203c0,0,0,0,0,0
	c-1.7-0.4-3.4-0.8-5.3-1.1c0,0,0,0,0,0c8-9.4,13.6-21.6,15.5-35.5c0.4-3.2,0.6-6.5,0.6-9.8c0-1.4,0-2.7-0.1-4.1c0-0.3,0-0.7-0.1-1
	c-0.2-2.7-0.5-5.3-0.9-7.9c-0.1-0.3-0.1-0.6-0.2-1c-0.5-2.6-1.1-5.1-1.8-7.5c-0.1-0.3-0.2-0.6-0.3-0.9c-0.8-2.4-1.6-4.8-2.6-7.1
	c-0.1-0.3-0.2-0.6-0.4-0.8c-0.5-1.1-1-2.2-1.6-3.3c-0.4-0.8-0.9-1.6-1.3-2.4c-0.9-1.6-1.9-3.1-2.9-4.6c-0.5-0.7-1-1.5-1.6-2.2
	c-0.5-0.7-1.1-1.4-1.6-2.1c-1.1-1.4-2.3-2.7-3.5-3.9c-0.6-0.6-1.2-1.2-1.8-1.8c-0.7-0.7-1.5-1.4-2.3-2c-0.3-0.2-0.5-0.4-0.8-0.6
	c-0.5-0.4-1.1-0.8-1.6-1.2c-0.3-0.2-0.6-0.5-1-0.7c-0.5-0.4-1-0.7-1.5-1c-0.3-0.2-0.7-0.4-1-0.7c-0.5-0.3-1-0.6-1.5-0.9
	c-0.2-0.1-0.3-0.2-0.5-0.3c-0.3-0.2-0.6-0.3-0.9-0.5c-0.2-0.1-0.5-0.2-0.7-0.4c-1.5-0.8-3.1-1.4-4.6-2c-0.2-0.1-0.5-0.2-0.7-0.3
	c-0.6-0.2-1.1-0.4-1.7-0.6c-0.1,0-0.3-0.1-0.4-0.1c-0.2-0.1-0.3-0.1-0.5-0.1c-0.3-0.1-0.5-0.1-0.8-0.2c-0.4-0.1-0.8-0.2-1.2-0.3
	c-0.2-0.1-0.5-0.1-0.7-0.2c-0.4-0.1-0.9-0.2-1.4-0.3c-0.2,0-0.4-0.1-0.7-0.1c-0.7-0.1-1.3-0.2-2-0.3c-0.4-0.1-0.9-0.1-1.3-0.1h0h-1
	c-0.5,0-1,0-1.6,0.1c-0.5,0-1,0-1.5,0c0,0-0.1,0-0.1,0c0,0-0.1,0-0.1,0c-0.5,0-1,0-1.5,0c-0.5,0-1,0-1.6-0.1c0,0-1,0-1,0h0
	c-0.4,0-0.9,0-1.3,0.1c-0.7,0.1-1.3,0.2-2,0.3c-0.2,0-0.4,0.1-0.7,0.1c-0.5,0.1-0.9,0.2-1.4,0.3c-0.3,0.1-0.5,0.1-0.8,0.2
	c-0.4,0.1-0.8,0.2-1.2,0.3c-0.3,0.1-0.5,0.1-0.8,0.2c-0.2,0-0.3,0.1-0.5,0.1c-0.1,0-0.3,0.1-0.4,0.1c-0.6,0.2-1.1,0.4-1.7,0.6
	c-0.2,0.1-0.5,0.2-0.7,0.3c-1.6,0.6-3.1,1.3-4.6,2c-0.2,0.1-0.5,0.2-0.7,0.4c-0.3,0.2-0.6,0.3-0.9,0.5c-0.2,0.1-0.3,0.2-0.5,0.3
	c-0.5,0.3-1,0.6-1.5,0.9c-0.4,0.2-0.7,0.4-1,0.7c-0.5,0.3-1,0.7-1.5,1c-0.3,0.2-0.6,0.4-1,0.7c-0.5,0.4-1.1,0.8-1.6,1.2
	c-0.3,0.2-0.5,0.4-0.8,0.6c-0.8,0.6-1.5,1.3-2.3,2c-0.6,0.6-1.2,1.2-1.8,1.8c-1.2,1.2-2.4,2.5-3.5,3.9c-0.6,0.7-1.1,1.4-1.6,2.1
	c-0.5,0.7-1,1.4-1.6,2.2c-1,1.5-2,3-2.9,4.6c-0.4,0.8-0.9,1.6-1.3,2.4c-0.6,1.1-1.1,2.2-1.6,3.3c-0.1,0.3-0.2,0.6-0.4,0.8
	c-1,2.3-1.9,4.6-2.6,7.1c-0.1,0.3-0.2,0.6-0.3,0.9c-0.7,2.4-1.3,5-1.8,7.5c-0.1,0.3-0.1,0.6-0.2,1c-0.4,2.6-0.8,5.2-0.9,7.9
	c0,0.3,0,0.7-0.1,1c-0.1,1.3-0.1,2.7-0.1,4.1c0,3.3,0.2,6.6,0.6,9.8c1.8,13.8,7.5,26.1,15.5,35.5c0,0,0,0,0,0
	c-1.8,0.3-3.6,0.6-5.3,1.1c0,0,0,0,0,0c-1,0.3-2,0.5-3,0.9c-17.9,5.5-32,18.5-42.6,32.8c-7.8,10.5-17,23.8-21.1,37.3
	c-17.2,39.1-25.3,88.2-17.9,132c0.9,5.4,5.9,9.3,11.6,9.3c0,0,2.2,0,2.2,0h3.8c6.3,0,11.5-4.7,11.8-10.7c2.2-12.7,4.4-25.4,6.6-38.1
	c2.9-16.9,4.8-34.5,10-50.9c2-6.2,4.7-12.3,8.4-17.8c0.8-1.2,11.7-13.5,11.7-9.1c0,0-13.5,255.5-13.5,255.5l-0.4,5.7
	c-0.7,4.3-1.3,8.7-1.8,13.1h56.6L251.8,410.3z" />
	<path class="st1" d="M158.2,188.2c3.4-0.3,6.4-2.3,7.8-5.4c1.5-3.1,1.2-6.7-0.6-9.5L92.5,63.2l-16,10.6l63.9,96.6L6.9,181.9v19.3
	L158.2,188.2z" />
	<path class="st1" d="M389.5,143.3l52.8-86.8l-16.4-10l-68.5,112.5c-2.2,3.6-1.8,8.1,0.9,11.3c1.9,2.2,4.5,3.3,7.3,3.3
	c1.3,0,2.6-0.3,3.8-0.8l135.6-58.2V93.7L389.5,143.3z" />
	<path class="st1" d="M417.3,260.2l28.8-22.6l-11.9-15.1l-39.8,31.2c-2.5,2-3.9,5-3.7,8.2c0.2,3.2,1.9,6,4.6,7.6l109.6,66V313
	L417.3,260.2z" />
	<path class="st1" d="M127.4,284.2c3.1-2.6,4.2-6.9,2.8-10.6c-1.4-3.8-5-6.3-9-6.3H71.6v19.2h23.3c-23.6,20-61.9,52.3-88,74.7v25.3
	C32.9,364.1,88.2,317.2,127.4,284.2z" />
</svg>